<?xml version="1.0" encoding="UTF-8"?>
<!DOCTYPE svg PUBLIC "-//W3C//DTD SVG 1.1//EN" "http://www.w3.org/Graphics/SVG/1.1/DTD/svg11.dtd">
<svg version="1.2" width="177.8mm" height="177.8mm" viewBox="0 0 17780 17780" preserveAspectRatio="xMidYMid" fill-rule="evenodd" stroke-width="28.222" stroke-linejoin="round" xmlns="http://www.w3.org/2000/svg" xmlns:ooo="http://xml.openoffice.org/svg/export" xmlns:xlink="http://www.w3.org/1999/xlink" xmlns:presentation="http://sun.com/xmlns/staroffice/presentation" xmlns:smil="http://www.w3.org/2001/SMIL20/" xmlns:anim="urn:oasis:names:tc:opendocument:xmlns:animation:1.0" xml:space="preserve">
 <defs class="ClipPathGroup">
  <clipPath id="presentation_clip_path" clipPathUnits="userSpaceOnUse">
   <rect x="0" y="0" width="17780" height="17780"/>
  </clipPath>
  <clipPath id="presentation_clip_path_shrink" clipPathUnits="userSpaceOnUse">
   <rect x="17" y="17" width="17745" height="17745"/>
  </clipPath>
 </defs>
 <defs class="TextShapeIndex">
  <g ooo:slide="id1" ooo:id-list="id3 id4 id5 id6 id7 id8 id9 id10 id11 id12 id13 id14 id15 id16 id17 id18 id19 id20 id21 id22 id23 id24 id25"/>
 </defs>
 <defs class="EmbeddedBulletChars">
  <g id="bullet-char-template-57356" transform="scale(0.00048828125,-0.00048828125)">
   <path d="M 580,1141 L 1163,571 580,0 -4,571 580,1141 Z"/>
  </g>
  <g id="bullet-char-template-57354" transform="scale(0.00048828125,-0.00048828125)">
   <path d="M 8,1128 L 1137,1128 1137,0 8,0 8,1128 Z"/>
  </g>
  <g id="bullet-char-template-10146" transform="scale(0.00048828125,-0.00048828125)">
   <path d="M 174,0 L 602,739 174,1481 1456,739 174,0 Z M 1358,739 L 309,1346 659,739 1358,739 Z"/>
  </g>
  <g id="bullet-char-template-10132" transform="scale(0.00048828125,-0.00048828125)">
   <path d="M 2015,739 L 1276,0 717,0 1260,543 174,543 174,936 1260,936 717,1481 1274,1481 2015,739 Z"/>
  </g>
  <g id="bullet-char-template-10007" transform="scale(0.00048828125,-0.00048828125)">
   <path d="M 0,-2 C -7,14 -16,27 -25,37 L 356,567 C 262,823 215,952 215,954 215,979 228,992 255,992 264,992 276,990 289,987 310,991 331,999 354,1012 L 381,999 492,748 772,1049 836,1024 860,1049 C 881,1039 901,1025 922,1006 886,937 835,863 770,784 769,783 710,716 594,584 L 774,223 C 774,196 753,168 711,139 L 727,119 C 717,90 699,76 672,76 641,76 570,178 457,381 L 164,-76 C 142,-110 111,-127 72,-127 30,-127 9,-110 8,-76 1,-67 -2,-52 -2,-32 -2,-23 -1,-13 0,-2 Z"/>
  </g>
  <g id="bullet-char-template-10004" transform="scale(0.00048828125,-0.00048828125)">
   <path d="M 285,-33 C 182,-33 111,30 74,156 52,228 41,333 41,471 41,549 55,616 82,672 116,743 169,778 240,778 293,778 328,747 346,684 L 369,508 C 377,444 397,411 428,410 L 1163,1116 C 1174,1127 1196,1133 1229,1133 1271,1133 1292,1118 1292,1087 L 1292,965 C 1292,929 1282,901 1262,881 L 442,47 C 390,-6 338,-33 285,-33 Z"/>
  </g>
  <g id="bullet-char-template-9679" transform="scale(0.00048828125,-0.00048828125)">
   <path d="M 813,0 C 632,0 489,54 383,161 276,268 223,411 223,592 223,773 276,916 383,1023 489,1130 632,1184 813,1184 992,1184 1136,1130 1245,1023 1353,916 1407,772 1407,592 1407,412 1353,268 1245,161 1136,54 992,0 813,0 Z"/>
  </g>
  <g id="bullet-char-template-8226" transform="scale(0.00048828125,-0.00048828125)">
   <path d="M 346,457 C 273,457 209,483 155,535 101,586 74,649 74,723 74,796 101,859 155,911 209,963 273,989 346,989 419,989 480,963 531,910 582,859 608,796 608,723 608,648 583,586 532,535 482,483 420,457 346,457 Z"/>
  </g>
  <g id="bullet-char-template-8211" transform="scale(0.00048828125,-0.00048828125)">
   <path d="M -4,459 L 1135,459 1135,606 -4,606 -4,459 Z"/>
  </g>
  <g id="bullet-char-template-61548" transform="scale(0.00048828125,-0.00048828125)">
   <path d="M 173,740 C 173,903 231,1043 346,1159 462,1274 601,1332 765,1332 928,1332 1067,1274 1183,1159 1299,1043 1357,903 1357,740 1357,577 1299,437 1183,322 1067,206 928,148 765,148 601,148 462,206 346,322 231,437 173,577 173,740 Z"/>
  </g>
 </defs>
 <g>
  <g id="id2" class="Master_Slide">
   <g id="bg-id2" class="Background"/>
   <g id="bo-id2" class="BackgroundObjects"/>
  </g>
 </g>
 <g class="SlideGroup">
  <g>
   <g id="container-id1">
    <g id="id1" class="Slide" clip-path="url(#presentation_clip_path)">
     <g class="Page">
      <g class="com.sun.star.drawing.EllipseShape">
       <g id="id3">
        <rect class="BoundingBox" stroke="none" fill="none" x="2476" y="2652" width="12488" height="11643"/>
        <path fill="none" stroke="rgb(255,151,47)" stroke-width="494" stroke-linejoin="round" stroke-linecap="round" d="M 2724,6822 C 2844,6509 2991,6205 3163,5915 3706,4998 4488,4237 5429,3707 6370,3178 7438,2899 8524,2899 9611,2899 10679,3178 11620,3707 12561,4237 13343,4998 13886,5915 14430,6832 14716,7872 14716,8931 14716,9990 14430,11030 13886,11947 13379,12803 12665,13524 11805,14047"/>
       </g>
      </g>
      <g class="com.sun.star.drawing.EllipseShape">
       <g id="id4">
        <rect class="BoundingBox" stroke="none" fill="none" x="2486" y="2651" width="12795" height="11938"/>
        <path fill="none" stroke="rgb(255,134,13)" stroke-width="494" stroke-linejoin="round" stroke-linecap="round" d="M 2734,6925 C 2857,6603 3007,6292 3184,5994 3741,5053 4543,4271 5508,3728 6473,3184 7568,2898 8683,2898 9798,2898 10893,3184 11858,3728 12823,4271 13625,5053 14182,5994 14740,6935 15033,8003 15033,9089 15033,10176 14740,11244 14182,12185 13662,13063 12929,13804 12047,14341"/>
       </g>
      </g>
      <g class="com.sun.star.drawing.EllipseShape">
       <g id="id5">
        <rect class="BoundingBox" stroke="none" fill="none" x="2086" y="2334" width="13449" height="12647"/>
        <path fill="none" stroke="rgb(234,117,0)" stroke-width="494" stroke-linejoin="round" stroke-linecap="round" d="M 2531,10770 C 2400,10242 2333,9700 2333,9156 2333,8002 2632,6868 3201,5869 3769,4869 4587,4039 5571,3462 6556,2885 7673,2581 8810,2581 9947,2581 11064,2885 12048,3462 13033,4039 13851,4869 14419,5868 14988,6868 15287,8002 15287,9156 15287,10310 14988,11444 14419,12444 13889,13376 13141,14162 12241,14733"/>
       </g>
      </g>
      <g class="com.sun.star.drawing.CustomShape">
       <g id="id6">
        <rect class="BoundingBox" stroke="none" fill="none" x="7785" y="7511" width="5253" height="7609"/>
        <path fill="rgb(234,117,0)" stroke="none" d="M 12435,10398 C 12729,11046 12923,11725 13000,12366 13076,13008 13032,13590 12871,14053 12710,14516 12438,14845 12083,15006 11728,15167 11301,15154 10847,14970 10393,14785 9926,14435 9494,13955 9062,13474 8680,12880 8387,12232 8093,11584 7899,10905 7822,10264 7746,9622 7790,9040 7951,8577 8112,8114 8384,7785 8739,7624 9094,7463 9521,7476 9975,7660 10429,7845 10896,8195 11328,8675 11760,9156 12142,9750 12435,10398 L 12435,10398 Z"/>
       </g>
      </g>
      <g class="com.sun.star.drawing.CustomShape">
       <g id="id7">
        <rect class="BoundingBox" stroke="none" fill="none" x="9847" y="5426" width="795" height="2249"/>
        <path fill="rgb(234,117,0)" stroke="none" d="M 10555,6618 C 10598,6421 10626,6225 10636,6048 10646,5872 10638,5722 10612,5613 10586,5504 10544,5441 10490,5429 10435,5417 10370,5457 10301,5545 10233,5633 10162,5766 10098,5930 10033,6095 9977,6285 9933,6482 9890,6679 9862,6875 9852,7052 9842,7228 9850,7378 9876,7487 9902,7596 9944,7659 9998,7671 10053,7683 10118,7643 10187,7555 10255,7467 10326,7334 10390,7170 10455,7005 10511,6815 10555,6618 L 10555,6618 Z"/>
       </g>
      </g>
      <g class="com.sun.star.drawing.CustomShape">
       <g id="id8">
        <rect class="BoundingBox" stroke="none" fill="none" x="5774" y="5416" width="795" height="2259"/>
        <path fill="rgb(234,117,0)" stroke="none" d="M 6482,6477 C 6525,6675 6553,6872 6563,7049 6574,7226 6566,7377 6540,7486 6514,7596 6472,7659 6418,7671 6363,7683 6298,7643 6229,7554 6161,7466 6090,7332 6025,7167 5961,7002 5904,6811 5860,6613 5817,6415 5789,6218 5779,6041 5768,5864 5776,5713 5802,5604 5828,5494 5870,5431 5924,5419 5979,5407 6044,5447 6113,5536 6181,5624 6252,5758 6317,5923 6381,6088 6438,6279 6482,6477 L 6482,6477 Z"/>
       </g>
      </g>
      <g class="com.sun.star.drawing.CustomShape">
       <g id="id9">
        <rect class="BoundingBox" stroke="none" fill="none" x="7921" y="7927" width="2216" height="4254"/>
        <path fill="rgb(184,92,0)" stroke="none" d="M 9741,10340 C 9593,10710 9414,11060 9222,11355 9031,11650 8834,11880 8651,12021 8469,12162 8307,12210 8182,12160 8057,12110 7973,11963 7939,11734 7905,11506 7922,11204 7988,10859 8054,10513 8168,10137 8316,9767 8465,9397 8644,9047 8835,8752 9027,8457 9224,8227 9406,8086 9589,7945 9751,7897 9876,7947 10001,7997 10085,8144 10119,8372 10153,8601 10136,8903 10069,9248 10003,9594 9890,9970 9741,10340 L 9741,10340 Z"/>
       </g>
      </g>
      <g class="com.sun.star.drawing.CustomShape">
       <g id="id10">
        <rect class="BoundingBox" stroke="none" fill="none" x="6143" y="4485" width="4130" height="3813"/>
        <path fill="rgb(123,61,0)" stroke="none" d="M 10272,6391 C 10272,6726 10177,7055 9995,7344 9814,7634 9554,7874 9240,8042 8926,8209 8570,8297 8208,8297 7845,8297 7489,8209 7175,8042 6861,7874 6601,7634 6420,7344 6238,7055 6143,6726 6143,6392 6143,6057 6238,5728 6420,5439 6601,5149 6861,4909 7175,4741 7489,4574 7845,4486 8207,4486 8570,4486 8926,4574 9240,4741 9554,4909 9814,5149 9995,5439 10177,5728 10272,6057 10272,6391 L 10272,6391 Z"/>
       </g>
      </g>
      <g class="com.sun.star.drawing.EllipseShape">
       <g id="id11">
        <rect class="BoundingBox" stroke="none" fill="none" x="6460" y="5120" width="1908" height="2542"/>
        <path fill="rgb(184,92,0)" stroke="none" d="M 8366,7510 C 8179,7608 7969,7660 7756,7660 7528,7660 7305,7601 7108,7490 6911,7378 6748,7218 6634,7025 6521,6832 6461,6613 6461,6391 6461,6168 6521,5949 6634,5756 6748,5563 6911,5403 7108,5291 7305,5180 7528,5121 7756,5121 7952,5121 8147,5165 8324,5250 L 8366,7510 Z"/>
        <path fill="none" stroke="rgb(184,92,0)" d="M 8366,7510 C 8179,7608 7969,7660 7756,7660 7528,7660 7305,7601 7108,7490 6911,7378 6748,7218 6634,7025 6521,6832 6461,6613 6461,6391 6461,6168 6521,5949 6634,5756 6748,5563 6911,5403 7108,5291 7305,5180 7528,5121 7756,5121 7952,5121 8147,5165 8324,5250 L 8366,7510 Z"/>
       </g>
      </g>
      <g class="com.sun.star.drawing.EllipseShape">
       <g id="id12">
        <rect class="BoundingBox" stroke="none" fill="none" x="8002" y="5126" width="1890" height="2542"/>
        <path fill="rgb(184,92,0)" stroke="none" d="M 8003,5268 C 8192,5172 8403,5124 8616,5127 8843,5131 9065,5193 9260,5308 9455,5422 9616,5585 9727,5780 9837,5975 9893,6195 9890,6418 9886,6640 9823,6858 9706,7050 9589,7241 9423,7398 9225,7506 9026,7615 8802,7670 8575,7666 8378,7663 8184,7616 8009,7528 L 8003,5268 Z"/>
        <path fill="none" stroke="rgb(184,92,0)" d="M 8003,5268 C 8192,5172 8403,5124 8616,5127 8843,5131 9065,5193 9260,5308 9455,5422 9616,5585 9727,5780 9837,5975 9893,6195 9890,6418 9886,6640 9823,6858 9706,7050 9589,7241 9423,7398 9225,7506 9026,7615 8802,7670 8575,7666 8378,7663 8184,7616 8009,7528 L 8003,5268 Z"/>
       </g>
      </g>
      <g class="com.sun.star.drawing.CustomShape">
       <g id="id13">
        <rect class="BoundingBox" stroke="none" fill="none" x="7094" y="6390" width="2225" height="2859"/>
        <path fill="rgb(255,134,13)" stroke="none" d="M 9318,7819 C 9318,8070 9267,8316 9169,8534 9071,8751 8931,8931 8762,9057 8593,9182 8401,9248 8206,9248 8011,9248 7819,9182 7650,9057 7481,8931 7341,8751 7243,8534 7145,8316 7094,8070 7094,7819 7094,7568 7145,7322 7243,7105 7341,6887 7481,6707 7650,6581 7819,6456 8011,6390 8206,6390 8401,6390 8593,6456 8762,6581 8931,6707 9071,6887 9169,7104 9267,7322 9318,7568 9318,7819 L 9318,7819 Z"/>
       </g>
      </g>
      <g class="com.sun.star.drawing.LineShape">
       <g id="id14">
        <rect class="BoundingBox" stroke="none" fill="none" x="7588" y="6952" width="478" height="479"/>
        <path fill="none" stroke="rgb(129,55,9)" stroke-width="159" stroke-linejoin="round" stroke-linecap="round" d="M 7668,7032 L 7985,7350"/>
       </g>
      </g>
      <g class="com.sun.star.drawing.LineShape">
       <g id="id15">
        <rect class="BoundingBox" stroke="none" fill="none" x="8223" y="6952" width="478" height="478"/>
        <path fill="none" stroke="rgb(129,55,9)" stroke-width="159" stroke-linejoin="round" stroke-linecap="round" d="M 8620,7032 L 8303,7349"/>
       </g>
      </g>
      <g class="com.sun.star.drawing.CustomShape">
       <g id="id16">
        <rect class="BoundingBox" stroke="none" fill="none" x="7269" y="8073" width="1749" height="628"/>
        <path fill="rgb(184,92,0)" stroke="none" d="M 8845,8153 L 8862,8167 8878,8182 8892,8197 8904,8212 8915,8227 8923,8243 8930,8258 8934,8274 8936,8290 8937,8306 8935,8322 8932,8338 8927,8353 8919,8369 8910,8385 8899,8400 8885,8415 8870,8429 8854,8444 8835,8458 8815,8472 8793,8485 8769,8498 8744,8510 8717,8522 8689,8533 8660,8544 8629,8554 8597,8563 8564,8572 8529,8580 8494,8587 8458,8594 8422,8600 8384,8605 8346,8609 8307,8613 8268,8616 8229,8618 8189,8619 8150,8620 8110,8620 8070,8619 8031,8617 7992,8614 7953,8611 7915,8607 7877,8602 7840,8596 7804,8590 7768,8582 7734,8575 7700,8566 7668,8557 7637,8547 7607,8537 7578,8526 7551,8514 7525,8502 7501,8489 7479,8476 7458,8463 7439,8449 7421,8434 7405,8420 7392,8405 7380,8390 7370,8374 7362,8359 7356,8343 7352,8327 7349,8311 7349,8295 7351,8280 7355,8264 7361,8248 7368,8232 7378,8217 7389,8202 7403,8187 7418,8172 8143,8302 8845,8153 Z"/>
        <path fill="none" stroke="rgb(129,55,9)" stroke-width="159" stroke-linejoin="round" stroke-linecap="round" d="M 8845,8153 L 8862,8167 8878,8182 8892,8197 8904,8212 8915,8227 8923,8243 8930,8258 8934,8274 8936,8290 8937,8306 8935,8322 8932,8338 8927,8353 8919,8369 8910,8385 8899,8400 8885,8415 8870,8429 8854,8444 8835,8458 8815,8472 8793,8485 8769,8498 8744,8510 8717,8522 8689,8533 8660,8544 8629,8554 8597,8563 8564,8572 8529,8580 8494,8587 8458,8594 8422,8600 8384,8605 8346,8609 8307,8613 8268,8616 8229,8618 8189,8619 8150,8620 8110,8620 8070,8619 8031,8617 7992,8614 7953,8611 7915,8607 7877,8602 7840,8596 7804,8590 7768,8582 7734,8575 7700,8566 7668,8557 7637,8547 7607,8537 7578,8526 7551,8514 7525,8502 7501,8489 7479,8476 7458,8463 7439,8449 7421,8434 7405,8420 7392,8405 7380,8390 7370,8374 7362,8359 7356,8343 7352,8327 7349,8311 7349,8295 7351,8280 7355,8264 7361,8248 7368,8232 7378,8217 7389,8202 7403,8187 7418,8172 8143,8302 8845,8153 Z"/>
       </g>
      </g>
      <g class="com.sun.star.drawing.CustomShape">
       <g id="id17">
        <rect class="BoundingBox" stroke="none" fill="none" x="8787" y="5588" width="839" height="1026"/>
        <path fill="rgb(255,134,13)" stroke="none" d="M 8878,5924 C 8923,5840 8983,5765 9051,5707 9119,5650 9193,5611 9266,5596 9338,5581 9407,5589 9465,5620 9522,5651 9567,5704 9594,5773 9621,5842 9630,5925 9620,6013 9609,6102 9580,6193 9535,6277 9489,6362 9430,6436 9362,6494 9294,6551 9219,6590 9147,6605 9074,6620 9006,6612 8948,6581 8890,6550 8846,6497 8818,6428 8791,6359 8782,6276 8793,6188 8803,6099 8832,6008 8878,5924 L 8878,5924 Z"/>
        <path fill="none" stroke="rgb(123,61,0)" d="M 8878,5924 C 8923,5840 8983,5765 9051,5707 9119,5650 9193,5611 9266,5596 9338,5581 9407,5589 9465,5620 9522,5651 9567,5704 9594,5773 9621,5842 9630,5925 9620,6013 9609,6102 9580,6193 9535,6277 9489,6362 9430,6436 9362,6494 9294,6551 9219,6590 9147,6605 9074,6620 9006,6612 8948,6581 8890,6550 8846,6497 8818,6428 8791,6359 8782,6276 8793,6188 8803,6099 8832,6008 8878,5924 L 8878,5924 Z"/>
       </g>
      </g>
      <g class="com.sun.star.drawing.CustomShape">
       <g id="id18">
        <rect class="BoundingBox" stroke="none" fill="none" x="9468" y="9462" width="3309" height="5670"/>
        <path fill="rgb(123,61,0)" stroke="none" d="M 12467,11834 C 12636,12324 12739,12828 12767,13294 12795,13759 12747,14170 12627,14486 12507,14802 12319,15011 12083,15092 11847,15173 11571,15124 11282,14949 10993,14774 10702,14479 10437,14095 10173,13710 9945,13250 9776,12759 9608,12268 9504,11765 9476,11299 9448,10833 9496,10422 9616,10106 9736,9791 9924,9582 10160,9501 10396,9419 10673,9469 10961,9644 11250,9819 11542,10113 11806,10498 12070,10882 12298,11343 12467,11834 L 12467,11834 Z"/>
       </g>
      </g>
      <g class="com.sun.star.drawing.CustomShape">
       <g id="id19">
        <rect class="BoundingBox" stroke="none" fill="none" x="6225" y="11484" width="2599" height="3278"/>
        <path fill="rgb(184,92,0)" stroke="none" d="M 8025,13499 C 7815,13779 7585,14036 7359,14245 7133,14455 6919,14608 6737,14691 6556,14774 6414,14782 6326,14716 6238,14650 6207,14512 6236,14314 6265,14117 6353,13869 6492,13593 6630,13318 6813,13026 7024,12746 7234,12466 7464,12209 7690,11999 7916,11790 8130,11636 8312,11554 8493,11471 8635,11462 8722,11528 8810,11594 8841,11733 8812,11930 8783,12127 8695,12376 8557,12651 8419,12927 8236,13219 8025,13499 L 8025,13499 Z"/>
       </g>
      </g>
      <g class="com.sun.star.drawing.CustomShape">
       <g id="id20">
        <rect class="BoundingBox" stroke="none" fill="none" x="7560" y="9405" width="3322" height="5686"/>
        <path fill="rgb(123,61,0)" stroke="none" d="M 10208,12717 C 9974,13209 9698,13671 9409,14056 9119,14440 8826,14735 8559,14909 8292,15084 8060,15132 7887,15050 7713,14968 7605,14757 7572,14440 7539,14122 7582,13709 7698,13242 7815,12774 7999,12269 8233,11777 8467,11285 8743,10824 9032,10439 9322,10054 9615,9760 9882,9585 10149,9410 10381,9362 10554,9444 10728,9527 10836,9737 10869,10055 10902,10372 10859,10785 10742,11253 10626,11720 10442,12225 10208,12717 L 10208,12717 Z"/>
       </g>
      </g>
      <g class="com.sun.star.drawing.CustomShape">
       <g id="id21">
        <rect class="BoundingBox" stroke="none" fill="none" x="4781" y="13763" width="2271" height="1410"/>
        <path fill="rgb(129,55,9)" stroke="none" d="M 7049,14391 C 7058,14514 7013,14638 6921,14751 6829,14864 6692,14962 6523,15035 6355,15108 6162,15153 5963,15166 5764,15180 5566,15161 5390,15111 5214,15061 5065,14982 4958,14883 4851,14783 4791,14666 4783,14544 4774,14421 4819,14297 4911,14184 5003,14071 5140,13973 5309,13900 5477,13827 5670,13782 5869,13769 6068,13755 6266,13774 6442,13824 6619,13874 6768,13953 6874,14052 6981,14152 7041,14269 7049,14391 L 7049,14391 Z"/>
        <path fill="none" stroke="rgb(120,75,4)" d="M 7049,14391 C 7058,14514 7013,14638 6921,14751 6829,14864 6692,14962 6523,15035 6355,15108 6162,15153 5963,15166 5764,15180 5566,15161 5390,15111 5214,15061 5065,14982 4958,14883 4851,14783 4791,14666 4783,14544 4774,14421 4819,14297 4911,14184 5003,14071 5140,13973 5309,13900 5477,13827 5670,13782 5869,13769 6068,13755 6266,13774 6442,13824 6619,13874 6768,13953 6874,14052 6981,14152 7041,14269 7049,14391 Z"/>
       </g>
      </g>
      <g class="com.sun.star.drawing.CustomShape">
       <g id="id22">
        <rect class="BoundingBox" stroke="none" fill="none" x="6428" y="13865" width="2540" height="1356"/>
        <path fill="rgb(129,55,9)" stroke="none" d="M 8966,14608 C 8960,14726 8896,14840 8779,14936 8662,15033 8498,15110 8302,15159 8106,15208 7885,15228 7663,15216 7440,15205 7223,15162 7033,15093 6843,15024 6687,14931 6581,14823 6475,14714 6423,14595 6429,14477 6435,14359 6499,14246 6616,14149 6733,14052 6897,13976 7093,13926 7289,13877 7510,13857 7732,13869 7955,13880 8172,13923 8362,13992 8552,14061 8708,14154 8814,14263 8920,14371 8972,14490 8966,14608 L 8966,14608 Z"/>
       </g>
      </g>
      <g class="com.sun.star.drawing.CustomShape">
       <g id="id23">
        <rect class="BoundingBox" stroke="none" fill="none" x="9021" y="5834" width="419" height="511"/>
        <path fill="rgb(129,55,9)" stroke="none" d="M 9391,6178 C 9368,6220 9337,6257 9303,6286 9269,6314 9232,6333 9195,6340 9159,6348 9126,6343 9097,6328 9069,6312 9047,6285 9035,6251 9022,6216 9018,6175 9024,6131 9030,6087 9046,6041 9069,6000 9092,5958 9123,5921 9157,5892 9191,5864 9228,5845 9265,5838 9301,5830 9334,5835 9363,5850 9391,5866 9413,5893 9425,5927 9438,5962 9442,6003 9436,6047 9430,6091 9414,6137 9391,6178 L 9391,6178 Z"/>
       </g>
      </g>
      <g class="com.sun.star.drawing.CustomShape">
       <g id="id24">
        <rect class="BoundingBox" stroke="none" fill="none" x="6882" y="5546" width="839" height="1026"/>
        <path fill="rgb(255,134,13)" stroke="none" d="M 6973,6235 C 7018,6319 7078,6394 7146,6452 7214,6509 7288,6548 7361,6563 7433,6578 7502,6570 7560,6539 7617,6508 7662,6455 7689,6386 7716,6317 7725,6234 7715,6146 7704,6057 7675,5966 7630,5882 7584,5797 7525,5723 7457,5665 7389,5608 7314,5569 7242,5554 7169,5539 7101,5547 7043,5578 6985,5609 6941,5662 6913,5731 6886,5800 6877,5883 6888,5971 6898,6060 6927,6151 6973,6235 L 6973,6235 Z"/>
        <path fill="none" stroke="rgb(123,61,0)" d="M 6973,6235 C 7018,6319 7078,6394 7146,6452 7214,6509 7288,6548 7361,6563 7433,6578 7502,6570 7560,6539 7617,6508 7662,6455 7689,6386 7716,6317 7725,6234 7715,6146 7704,6057 7675,5966 7630,5882 7584,5797 7525,5723 7457,5665 7389,5608 7314,5569 7242,5554 7169,5539 7101,5547 7043,5578 6985,5609 6941,5662 6913,5731 6886,5800 6877,5883 6888,5971 6898,6060 6927,6151 6973,6235 L 6973,6235 Z"/>
       </g>
      </g>
      <g class="com.sun.star.drawing.CustomShape">
       <g id="id25">
        <rect class="BoundingBox" stroke="none" fill="none" x="7119" y="5840" width="431" height="502"/>
        <path fill="rgb(129,55,9)" stroke="none" d="M 7488,5990 C 7462,5950 7429,5915 7393,5889 7357,5863 7319,5847 7282,5842 7246,5837 7212,5844 7185,5861 7158,5879 7138,5907 7128,5942 7117,5977 7117,6019 7126,6063 7135,6106 7153,6150 7179,6191 7205,6231 7238,6266 7274,6292 7311,6318 7349,6334 7385,6339 7422,6344 7455,6338 7483,6320 7510,6302 7529,6275 7540,6239 7550,6204 7551,6162 7542,6119 7533,6075 7514,6031 7488,5990 L 7488,5990 Z"/>
       </g>
      </g>
     </g>
    </g>
   </g>
  </g>
 </g>
</svg>